<svg xmlns="http://www.w3.org/2000/svg" version="1.1" xmlns:xlink="http://www.w3.org/1999/xlink" xmlns:svgjs="http://svgjs.dev/svgjs" width="1000" height="540" viewBox="0 0 1000 540"><g transform="matrix(1,0,0,1,-0.6060606060606233,-0.36580138832096054)"><svg viewBox="0 0 396 214" data-background-color="#ffffff" preserveAspectRatio="xMidYMid meet" height="540" width="1000" xmlns="http://www.w3.org/2000/svg" xmlns:xlink="http://www.w3.org/1999/xlink"><g id="tight-bounds" transform="matrix(1,0,0,1,0.2400000000000091,0.1449657353716418)"><svg viewBox="0 0 395.52 213.71006852925672" height="213.71006852925672" width="395.52"><g><svg viewBox="0 0 395.52 213.71006852925672" height="213.71006852925672" width="395.52"><g><svg viewBox="0 0 395.52 213.71006852925672" height="213.71006852925672" width="395.52"><g><svg viewBox="0 0 395.52 213.71006852925672" height="213.71006852925672" width="395.52"><g><svg viewBox="0 0 395.52 213.71006852925672" height="213.71006852925672" width="395.52"><g transform="matrix(1,0,0,1,0,0)"><svg width="395.52" viewBox="3.85 -38.2 94.84 51.25000000000001" height="213.71006852925672" data-palette-color="#000000"><path d="M5.35-7.65L5.35-7.65 5.35-32.1Q5.35-34.3 3.85-34.95L3.85-34.95Q5.3-36.9 7.7-36.9L7.7-36.9Q11.85-36.9 11.85-31.95L11.85-31.95 11.85-8.35Q11.85-6.5 12.63-5.68 13.4-4.85 15.1-4.85L15.1-4.85 21.45-4.85Q24.7-4.85 26.3-6.85L26.3-6.85Q27.6-6.2 27.6-4.38 27.6-2.55 26.1-1.28 24.6 0 21.7 0L21.7 0 13.85 0Q9.25 0 7.3-1.7 5.35-3.4 5.35-7.65ZM38.45-6.65L38.45-6.65Q38.45-3.8 41.7-3.8L41.7-3.8Q44.4-3.8 46.45-6.3L46.45-6.3 46.45-11.6Q42.25-11.35 40.35-10 38.45-8.65 38.45-6.65ZM52.9-17.75L52.9-17.75 52.9-5.65Q52.9-2.7 55.5-2.05L55.5-2.05Q53.85 0.5 50.8 0.5L50.8 0.5Q47.25 0.5 46.6-3.05L46.6-3.05Q43.6 0.5 38.85 0.5L38.85 0.5Q35.55 0.5 33.5-1.2 31.45-2.9 31.45-5.95L31.45-5.95Q31.45-9.7 35.35-12 39.25-14.3 46.45-14.4L46.45-14.4 46.45-18.5Q46.45-22.85 43-22.85L43-22.85Q41.45-22.85 40.55-22.05 39.65-21.25 39.65-20.08 39.65-18.9 40.4-18.1L40.4-18.1Q38.85-16.65 36.8-16.65 34.75-16.65 33.7-17.65 32.65-18.65 32.65-20.25L32.65-20.25Q32.65-22.85 35.8-24.6 38.95-26.35 43.27-26.35 47.6-26.35 50.25-24.23 52.9-22.1 52.9-17.75ZM67.45-21.35L67.45-21.35 67.45 5.2Q67.45 9.15 65.75 11.1 64.05 13.05 61.4 13.05L61.4 13.05Q57.45 13.05 56.15 9.25L56.15 9.25Q58.95 9.25 59.97 8.05 61 6.85 61 4.05L61 4.05 61-21.5Q61-23.7 59.5-24.45L59.5-24.45Q60.95-26.35 63.3-26.35L63.3-26.35Q67.45-26.35 67.45-21.35ZM64.5-38.2Q66.2-38.2 67.3-37.18 68.4-36.15 68.4-34.48 68.4-32.8 66.97-31.43 65.55-30.05 63.75-30.05 61.95-30.05 60.82-31.1 59.7-32.15 59.7-33.9 59.7-35.65 61.25-36.93 62.8-38.2 64.5-38.2ZM85.69-22.95L85.69-22.95Q80.24-22.95 80.24-14.55L80.24-14.55Q80.24-13.8 80.29-12.95L80.29-12.95Q80.84-2.9 86.79-2.9L86.79-2.9Q92.14-2.9 92.14-11.2L92.14-11.2Q92.14-12 92.09-12.95L92.09-12.95Q91.54-22.95 85.69-22.95ZM73.74-12.95Q73.74-19.4 77.24-22.88 80.74-26.35 86.22-26.35 91.69-26.35 95.19-22.85 98.69-19.35 98.69-12.93 98.69-6.5 95.19-3 91.69 0.5 86.24 0.5 80.79 0.5 77.27-3 73.74-6.5 73.74-12.95Z" opacity="1" transform="matrix(1,0,0,1,0,0)" fill="#000000" class="undefined-text-0" data-fill-palette-color="primary" id="text-0"></path></svg></g></svg></g></svg></g></svg></g></svg></g><defs></defs></svg><rect width="395.52" height="213.71006852925672" fill="none" stroke="none" visibility="hidden"></rect></g></svg></g></svg>